<?xml version="1.0" encoding="UTF-8" standalone="no"?>
<!-- Created with Inkscape (http://www.inkscape.org/) -->

<svg
   xmlns:dc="http://purl.org/dc/elements/1.1/"
   xmlns:cc="http://creativecommons.org/ns#"
   xmlns:rdf="http://www.w3.org/1999/02/22-rdf-syntax-ns#"
   xmlns:svg="http://www.w3.org/2000/svg"
   xmlns="http://www.w3.org/2000/svg"
   xmlns:sodipodi="http://sodipodi.sourceforge.net/DTD/sodipodi-0.dtd"
   xmlns:inkscape="http://www.inkscape.org/namespaces/inkscape"
   width="296.4375"
   height="245.4375"
   id="svg2"
   version="1.1"
   inkscape:version="0.48.4 r9939"
   sodipodi:docname="1-profile.svg">
  <defs
     id="defs4">
    <inkscape:path-effect
       effect="spiro"
       id="path-effect3892"
       is_visible="true" />
    <inkscape:path-effect
       effect="spiro"
       id="path-effect3888"
       is_visible="true" />
    <inkscape:path-effect
       effect="spiro"
       id="path-effect3838"
       is_visible="true" />
    <inkscape:path-effect
       effect="spiro"
       id="path-effect3834"
       is_visible="true" />
    <inkscape:path-effect
       effect="spiro"
       id="path-effect3830"
       is_visible="true" />
    <inkscape:path-effect
       effect="spiro"
       id="path-effect3826"
       is_visible="true" />
    <inkscape:path-effect
       effect="spiro"
       id="path-effect3822"
       is_visible="true" />
    <inkscape:path-effect
       effect="spiro"
       id="path-effect3818"
       is_visible="true" />
    <inkscape:path-effect
       effect="spiro"
       id="path-effect3814"
       is_visible="true" />
    <inkscape:path-effect
       effect="spiro"
       id="path-effect3810"
       is_visible="true" />
    <inkscape:path-effect
       effect="spiro"
       id="path-effect3806"
       is_visible="true" />
    <inkscape:path-effect
       effect="spiro"
       id="path-effect3802"
       is_visible="true" />
    <inkscape:path-effect
       effect="spiro"
       id="path-effect3798"
       is_visible="true" />
    <inkscape:path-effect
       effect="spiro"
       id="path-effect3794"
       is_visible="true" />
    <inkscape:path-effect
       effect="spiro"
       id="path-effect3790"
       is_visible="true" />
    <inkscape:path-effect
       effect="spiro"
       id="path-effect3838-1"
       is_visible="true" />
    <inkscape:path-effect
       effect="spiro"
       id="path-effect3838-4"
       is_visible="true" />
    <inkscape:path-effect
       effect="spiro"
       id="path-effect3892-9"
       is_visible="true" />
    <inkscape:path-effect
       effect="spiro"
       id="path-effect3838-8"
       is_visible="true" />
    <inkscape:path-effect
       effect="spiro"
       id="path-effect3838-2"
       is_visible="true" />
    <inkscape:path-effect
       effect="spiro"
       id="path-effect3892-9-5"
       is_visible="true" />
  </defs>
  <sodipodi:namedview
     id="base"
     pagecolor="#ffffff"
     bordercolor="#666666"
     borderopacity="1.0"
     inkscape:pageopacity="0.0"
     inkscape:pageshadow="2"
     inkscape:zoom="1.4"
     inkscape:cx="-126.76786"
     inkscape:cy="148.1262"
     inkscape:document-units="px"
     inkscape:current-layer="layer1"
     showgrid="false"
     inkscape:window-width="1920"
     inkscape:window-height="1013"
     inkscape:window-x="1911"
     inkscape:window-y="-9"
     inkscape:window-maximized="1"
     fit-margin-top="0"
     fit-margin-left="0"
     fit-margin-right="0"
     fit-margin-bottom="0" />
  <metadata
     id="metadata7">
    <rdf:RDF>
      <cc:Work
         rdf:about="">
        <dc:format>image/svg+xml</dc:format>
        <dc:type
           rdf:resource="http://purl.org/dc/dcmitype/StillImage" />
        <dc:title />
      </cc:Work>
    </rdf:RDF>
  </metadata>
  <g
     inkscape:label="Layer 1"
     inkscape:groupmode="layer"
     id="layer1"
     transform="translate(-163.15625,-374.5625)">
    <rect
       style="fill:none;stroke:#b3b3b3;stroke-width:3;stroke-linecap:round;stroke-linejoin:round;stroke-miterlimit:4;stroke-opacity:1;stroke-dasharray:none;stroke-dashoffset:0"
       id="rect2985"
       width="291.42902"
       height="240.41631"
       x="165.66502"
       y="377.0752" />
    <g
       id="g3779"
       transform="matrix(2.5878963,0,0,2.5878963,173.81775,392.38314)"
       style="fill:#de87aa">
      <g
         id="i20"
         style="fill:#de87aa">
        <path
           id="path3770"
           d="M 24.94,23.372 C 24,22.956 22.376,22.364 20.767,21.804 V 19.496 C 25.125,18.278 24.453,16.284 23.903,12.14 23.251,7.227 22.413,3.654 18.895,3.8 17.975,3.026 17.162,2.52 15.038,2.591 12.913,2.662 9.424,4.923 8.494,8.501 7.573,12.044 3.9,21.223 11.24,20.739 v 1.066 c -1.608,0.56 -3.233,1.152 -4.172,1.568 -2.342,1.036 -3.107,2.476 -3.107,5.93 1.195,0 12.043,0 12.043,0 0,0 10.848,0 12.042,0 0,-3.455 -0.765,-4.894 -3.106,-5.931 z M 12.585,20.563 c 0.021,-0.004 0.043,-0.009 0.064,-0.013 0.22,0.197 0.452,0.375 0.693,0.536 0.774,0.518 1.649,0.842 2.619,0.842 0.982,0 1.867,-0.332 2.648,-0.862 0.286,-0.194 0.558,-0.415 0.815,-0.658 v 2.459 c -0.497,1.036 -1.99,3.509 -3.452,3.509 -1.458,0 -2.909,-2.472 -3.387,-3.504 V 20.563 z M 9.44,12.839 C 9.462,12.801 9.483,12.775 9.505,12.747 9.597,12.661 9.694,12.588 9.8,12.539 L 10.349,12.414 10.348,12.4 c 1.287,-0.255 2.896,-0.557 4.516,-2.889 0.425,0.566 -0.212,1.983 -0.212,1.983 0,0 2.62,-0.567 3.966,-3.4 0.716,2.333 2.283,4.007 2.96,4.273 l -0.004,0.046 0.569,0.13 c 0.004,0.001 0.01,0.004 0.015,0.005 0.07,0.036 0.136,0.078 0.198,0.125 0.041,0.042 0.083,0.092 0.127,0.167 0.493,0.839 -0.319,2.139 -0.793,2.462 -0.212,0.144 -0.378,0.19 -0.543,0.227 l -0.363,0.081 -0.124,0.35 c -0.261,0.738 -0.719,1.694 -1.348,2.546 -0.173,0.235 -0.36,0.46 -0.559,0.672 -0.232,0.247 -0.478,0.476 -0.743,0.672 -0.373,0.276 -0.778,0.49 -1.212,0.614 -0.268,0.076 -0.546,0.12 -0.836,0.12 -0.271,0 -0.532,-0.041 -0.784,-0.109 C 14.724,20.354 14.301,20.137 13.914,19.85 13.649,19.654 13.403,19.425 13.171,19.178 12.972,18.966 12.786,18.741 12.612,18.506 11.984,17.654 11.525,16.697 11.264,15.96 L 11.14,15.609 10.777,15.528 C 10.612,15.491 10.446,15.446 10.234,15.301 9.759,14.978 8.947,13.679 9.44,12.839 z"
           inkscape:connector-curvature="0"
           style="fill:#de87aa" />
      </g>
      <g
         id="Layer_1"
         style="fill:#de87aa" />
    </g>
    <text
       xml:space="preserve"
       style="font-size:66.94702911px;font-style:normal;font-variant:normal;font-weight:normal;font-stretch:normal;line-height:125%;letter-spacing:0px;word-spacing:0px;fill:#333333;fill-opacity:1;stroke:none;font-family:Lato;-inkscape-font-specification:Lato"
       x="261.90918"
       y="457.70233"
       id="text3784"
       sodipodi:linespacing="125%"><tspan
         sodipodi:role="line"
         id="tspan3786"
         x="261.90918"
         y="457.70233">Susan</tspan></text>
    <path
       style="fill:none;stroke:#b3b3b3;stroke-width:2.90526605;stroke-linecap:butt;stroke-linejoin:miter;stroke-miterlimit:4;stroke-opacity:1;stroke-dasharray:none"
       d="m 410.67438,530.14022 c -8.87565,-3.98656 -18.70602,-5.82777 -28.42279,-5.32355 -9.56412,0.4963 -19.21232,3.21142 -28.58143,1.22685 -4.27525,-0.90558 -8.36893,-2.77661 -12.73278,-3.01042 -4.96423,-0.26598 -9.75587,1.60448 -14.47526,3.16708 -2.35969,0.78131 -4.7545,1.49484 -7.21691,1.83419 -2.4624,0.33936 -5.00726,0.29431 -7.38763,-0.42153 -2.36136,-0.71012 -4.47428,-2.04709 -6.66617,-3.17666 -2.19189,-1.12957 -4.58955,-2.07919 -7.04958,-1.91017 -2.36964,0.16281 -4.5297,1.33922 -6.66635,2.3767 -1.06833,0.51874 -2.15592,1.01049 -3.29891,1.33295 -1.143,0.32246 -2.34907,0.47197 -3.52371,0.29691 -1.17783,-0.17554 -2.28786,-0.67096 -3.31008,-1.28184 -1.02221,-0.61089 -1.96865,-1.3387 -2.94051,-2.02687 -0.97187,-0.68817 -1.97941,-1.34231 -3.08514,-1.78443 -1.10572,-0.44213 -2.32289,-0.66455 -3.49685,-0.46471 -1.40186,0.23863 -2.64869,1.06204 -3.65181,2.06996 -1.00313,1.00792 -1.7952,2.20159 -2.61062,3.3666 -0.81541,1.16502 -1.67304,2.32251 -2.77371,3.22288 -1.10067,0.90037 -2.48121,1.5309 -3.90233,1.48016 -1.33261,-0.0476 -2.58799,-0.68762 -3.6142,-1.53909 -1.02621,-0.85147 -1.85644,-1.90993 -2.69412,-2.94743 -0.83768,-1.03749 -1.70269,-2.07363 -2.77815,-2.86198 -1.07547,-0.78834 -2.3963,-1.31618 -3.72501,-1.20374 -0.90908,0.0769 -1.77482,0.44839 -2.53546,0.95213 -0.76065,0.50375 -1.42569,1.13754 -2.06644,1.78698 -0.64076,0.64944 -1.26325,1.31958 -1.95753,1.91146 -0.69427,0.59189 -1.46819,1.10776 -2.33234,1.40033 -1.11363,0.37703 -2.33073,0.36552 -3.48455,0.13964 -1.15381,-0.22588 -2.25615,-0.65786 -3.34068,-1.11185 -1.08453,-0.45399 -2.16247,-0.93357 -3.29146,-1.26177 -1.12898,-0.3282 -2.32124,-0.50201 -3.48423,-0.32947 -1.44972,0.21508 -2.77647,0.95685 -3.92366,1.86894 -1.1472,0.91208 -2.14202,1.99763 -3.18621,3.02603 -1.0442,1.0284 -2.1585,2.01467 -3.46817,2.67248 -1.30967,0.65781 -2.84547,0.96405 -4.25981,0.57988 -1.41726,-0.38497 -2.57468,-1.4142 -3.50272,-2.55243 -0.92804,-1.13824 -1.68135,-2.4121 -2.63082,-3.53252 -2.42877,-2.86605 -6.15126,-4.59086 -9.90801,-4.59086 -3.75674,0 -7.47923,1.72481 -9.908,4.59086"
       id="path3836"
       inkscape:path-effect="#path-effect3838"
       inkscape:original-d="m 410.67438,530.14022 c -3.59223,-2.15892 -15.99429,-4.2871 -28.42279,-5.32355 -12.4285,-1.03645 -24.88344,-0.98117 -28.58143,1.22685 -2.46723,1.47314 -10.60617,-4.72461 -12.73278,-3.01042 -6.20661,5.00293 -21.09187,5.80617 -29.0798,4.57974 -5.53879,-0.85041 -9.35991,-1.96585 -13.71575,-5.08683 -6.53357,-4.68131 -5.57625,4.00656 -13.48897,4.00656 -1.21251,0 -11.59949,-6.22048 -12.83258,-5.55785 -3.82192,2.05382 -9.56079,7.23546 -12.93847,10.1396 -2.30569,1.98244 -9.18669,-7.25366 -12.81148,-8.55224 -1.1047,-0.39577 -7.61823,6.44196 -8.89177,6.0509 -4.98758,-1.53155 -10.42392,-5.12431 -13.60092,-2.56345 -4.89887,3.94881 -9.23348,6.94267 -14.83785,8.14733 -1.25511,0.26978 -4.50456,-5.20959 -6.13354,-6.08495 -8.3668,-4.49614 -12.38428,-3.99364 -19.81601,0"
       inkscape:connector-curvature="0"
       sodipodi:nodetypes="csssssssssssssc" />
    <path
       style="fill:none;stroke:#b3b3b3;stroke-width:3;stroke-linecap:butt;stroke-linejoin:miter;stroke-miterlimit:4;stroke-opacity:1;stroke-dasharray:none"
       d="m 184.85792,503.34427 c 2.00141,-3.73965 5.24354,-6.80167 9.09137,-8.58629 3.75411,-1.74116 7.99059,-2.26063 12.12184,-2.02031 2.25841,0.13138 4.54636,0.49602 6.56598,1.51523 1.94345,0.98077 3.54756,2.51966 5.41153,3.64416 0.93199,0.56226 1.93863,1.02284 3.00818,1.22479 1.06956,0.20195 2.20869,0.13267 3.19705,-0.32326 1.31726,-0.60766 2.24197,-1.8241 3.01486,-3.05173 0.77289,-1.22762 1.46915,-2.53672 2.54098,-3.51427 0.79328,-0.7235 1.76865,-1.23621 2.80018,-1.53404 1.03153,-0.29782 2.11835,-0.38442 3.18947,-0.31061 2.14225,0.14762 4.19224,0.92395 6.13217,1.84465 2.20471,1.04636 4.34066,2.30965 6.06093,4.04062 0.91313,0.91881 1.7,1.96015 2.65111,2.83959 0.9511,0.87944 2.11817,1.60756 3.4098,1.70609 1.20807,0.0922 2.40377,-0.38 3.39996,-1.0696 0.99618,-0.68961 1.82521,-1.58873 2.66095,-2.46593 1.75834,-1.84558 3.66382,-3.6786 6.06092,-4.54569 1.39983,-0.50635 2.94151,-0.65577 4.39345,-0.32745 1.45194,0.32832 2.80456,1.14948 3.68777,2.34775 0.5479,0.74335 0.90684,1.60836 1.41164,2.38162 0.2524,0.38663 0.54335,0.75205 0.89703,1.04886 0.35369,0.29681 0.77334,0.52348 1.22686,0.61014 0.47074,0.0899 0.96379,0.0258 1.41298,-0.14127 0.44919,-0.16711 0.85658,-0.43406 1.21993,-0.74659 0.72668,-0.62505 1.2776,-1.42474 1.91278,-2.1426 1.32484,-1.4973 3.03966,-2.64652 4.92818,-3.30272 1.88852,-0.6562 3.94647,-0.81789 5.9143,-0.46469 1.96783,0.3532 3.84109,1.22049 5.38352,2.4925 1.54244,1.27202 2.75055,2.94586 3.47198,4.81044"
       id="path3890"
       inkscape:path-effect="#path-effect3892"
       inkscape:original-d="m 184.85792,503.34427 c 3.61969,-0.44285 5.94065,-7.01093 9.09137,-8.58629 5.27882,-2.63941 4.91803,-3.22095 12.12184,-2.02031 1.73785,0.28964 4.87884,0.95285 6.56598,1.51523 2.12109,0.70703 9.03234,7.1301 11.61676,4.54569 1.20177,-1.20177 3.93427,-7.20978 5.55584,-6.566 10.21586,4.05582 8.41517,-1.23555 12.12182,0 3.11646,1.03882 4.97944,0.79616 6.06093,4.04062 0.38759,1.16277 4.83524,4.54568 6.06091,4.54568 1.93168,0 5.11852,-2.12193 6.06091,-3.53553 1.04807,-1.5721 4.95432,-3.43909 6.06092,-4.54569 0.25726,-0.25726 7.76621,2.0203 8.08122,2.0203 7.6733,0 -0.41549,0.0896 3.53553,4.04062 0.47439,0.47438 3.75477,-2.76682 4.54569,-3.03046 5.90123,-1.96708 13.5609,3.53553 19.69798,3.53553"
       inkscape:connector-curvature="0"
       sodipodi:nodetypes="csssssssssssssc" />
    <path
       style="fill:none;stroke:#b3b3b3;stroke-width:3;stroke-linecap:butt;stroke-linejoin:miter;stroke-miterlimit:4;stroke-opacity:1;stroke-dasharray:none"
       d="m 300.52039,568.92881 c -2.00141,-3.73965 -5.24354,-6.80167 -9.09137,-8.58629 -3.75411,-1.74116 -7.99059,-2.26063 -12.12184,-2.02031 -2.25841,0.13138 -4.54636,0.49602 -6.56598,1.51523 -1.94345,0.98077 -3.54756,2.51966 -5.41153,3.64416 -0.93199,0.56226 -1.93863,1.02284 -3.00818,1.22479 -1.06956,0.20195 -2.20869,0.13267 -3.19705,-0.32326 -1.31726,-0.60766 -2.24197,-1.8241 -3.01486,-3.05173 -0.77289,-1.22762 -1.46915,-2.53672 -2.54098,-3.51427 -0.79328,-0.7235 -1.76865,-1.23621 -2.80018,-1.53404 -1.03153,-0.29782 -2.11835,-0.38442 -3.18947,-0.31061 -2.14225,0.14762 -4.19224,0.92395 -6.13217,1.84465 -2.20471,1.04636 -4.34066,2.30965 -6.06093,4.04062 -0.91313,0.91881 -1.7,1.96015 -2.65111,2.83959 -0.9511,0.87944 -2.11817,1.60756 -3.4098,1.70609 -1.20807,0.0922 -2.40377,-0.38 -3.39996,-1.0696 -0.99618,-0.68961 -1.82521,-1.58873 -2.66095,-2.46593 -1.75834,-1.84558 -3.66382,-3.6786 -6.06092,-4.54569 -1.39983,-0.50635 -2.94151,-0.65577 -4.39345,-0.32745 -1.45194,0.32832 -2.80456,1.14948 -3.68777,2.34775 -0.5479,0.74335 -0.90684,1.60836 -1.41164,2.38162 -0.2524,0.38663 -0.54335,0.75205 -0.89703,1.04886 -0.35369,0.29681 -0.77334,0.52348 -1.22686,0.61014 -0.47074,0.0899 -0.96379,0.0258 -1.41298,-0.14127 -0.44919,-0.16711 -0.85658,-0.43406 -1.21993,-0.74659 -0.72668,-0.62505 -1.2776,-1.42474 -1.91278,-2.1426 -1.32484,-1.4973 -3.03966,-2.64652 -4.92818,-3.30272 -1.88852,-0.6562 -3.94647,-0.81789 -5.9143,-0.46469 -1.96783,0.3532 -3.84109,1.22049 -5.38352,2.4925 -1.54244,1.27202 -2.75055,2.94586 -3.47198,4.81044"
       id="path3890-4"
       inkscape:path-effect="#path-effect3892-9"
       inkscape:original-d="m 300.52039,568.92881 c -3.61969,-0.44285 -5.94065,-7.01093 -9.09137,-8.58629 -5.27882,-2.63941 -4.91803,-3.22095 -12.12184,-2.02031 -1.73785,0.28964 -4.87884,0.95285 -6.56598,1.51523 -2.12109,0.70703 -9.03234,7.1301 -11.61676,4.54569 -1.20177,-1.20177 -3.93427,-7.20978 -5.55584,-6.566 -10.21586,4.05582 -8.41517,-1.23555 -12.12182,0 -3.11646,1.03882 -4.97944,0.79616 -6.06093,4.04062 -0.38759,1.16277 -4.83524,4.54568 -6.06091,4.54568 -1.93168,0 -5.11852,-2.12193 -6.06091,-3.53553 -1.04807,-1.5721 -4.95432,-3.43909 -6.06092,-4.54569 -0.25726,-0.25726 -7.76621,2.0203 -8.08122,2.0203 -7.6733,0 0.41549,0.0896 -3.53553,4.04062 -0.47439,0.47438 -3.75477,-2.76682 -4.54569,-3.03046 -5.90123,-1.96708 -13.5609,3.53553 -19.69798,3.53553"
       inkscape:connector-curvature="0"
       sodipodi:nodetypes="csssssssssssssc" />
    <path
       style="fill:none;stroke:#b3b3b3;stroke-width:2.90526605;stroke-linecap:butt;stroke-linejoin:miter;stroke-miterlimit:4;stroke-opacity:1;stroke-dasharray:none"
       d="m 411.432,596.26005 c -8.87565,-3.98656 -18.70602,-5.82777 -28.42279,-5.32355 -9.56412,0.4963 -19.21232,3.21142 -28.58143,1.22685 -4.27525,-0.90558 -8.36893,-2.77661 -12.73278,-3.01042 -4.96423,-0.26598 -9.75587,1.60448 -14.47526,3.16708 -2.35969,0.78131 -4.7545,1.49484 -7.21691,1.83419 -2.4624,0.33936 -5.00726,0.29431 -7.38763,-0.42153 -2.36136,-0.71012 -4.47428,-2.04709 -6.66617,-3.17666 -2.19189,-1.12957 -4.58955,-2.07919 -7.04958,-1.91017 -2.36964,0.16281 -4.5297,1.33922 -6.66635,2.3767 -1.06833,0.51874 -2.15592,1.01049 -3.29891,1.33295 -1.143,0.32246 -2.34907,0.47197 -3.52371,0.29691 -1.17783,-0.17554 -2.28786,-0.67096 -3.31008,-1.28184 -1.02221,-0.61089 -1.96865,-1.3387 -2.94051,-2.02687 -0.97187,-0.68817 -1.97941,-1.34231 -3.08514,-1.78443 -1.10572,-0.44213 -2.32289,-0.66455 -3.49685,-0.46471 -1.40186,0.23863 -2.64869,1.06204 -3.65181,2.06996 -1.00313,1.00792 -1.7952,2.20159 -2.61062,3.3666 -0.81541,1.16502 -1.67304,2.32251 -2.77371,3.22288 -1.10067,0.90037 -2.48121,1.5309 -3.90233,1.48016 -1.33261,-0.0476 -2.58799,-0.68762 -3.6142,-1.53909 -1.02621,-0.85147 -1.85644,-1.90993 -2.69412,-2.94743 -0.83768,-1.03749 -1.70269,-2.07363 -2.77815,-2.86198 -1.07547,-0.78834 -2.3963,-1.31618 -3.72501,-1.20374 -0.90908,0.0769 -1.77482,0.44839 -2.53546,0.95213 -0.76065,0.50375 -1.42569,1.13754 -2.06644,1.78698 -0.64076,0.64944 -1.26325,1.31958 -1.95753,1.91146 -0.69427,0.59189 -1.46819,1.10776 -2.33234,1.40033 -1.11363,0.37703 -2.33073,0.36552 -3.48455,0.13964 -1.15381,-0.22588 -2.25615,-0.65786 -3.34068,-1.11185 -1.08453,-0.45399 -2.16247,-0.93357 -3.29146,-1.26177 -1.12898,-0.3282 -2.32124,-0.50201 -3.48423,-0.32947 -1.44972,0.21508 -2.77647,0.95685 -3.92366,1.86894 -1.1472,0.91208 -2.14202,1.99763 -3.18621,3.02603 -1.0442,1.0284 -2.1585,2.01467 -3.46817,2.67248 -1.30967,0.65781 -2.84547,0.96405 -4.25981,0.57988 -1.41726,-0.38497 -2.57468,-1.4142 -3.50272,-2.55243 -0.92804,-1.13824 -1.68135,-2.4121 -2.63082,-3.53252 -2.42877,-2.86605 -6.15126,-4.59086 -9.90801,-4.59086 -3.75674,0 -7.47923,1.72481 -9.908,4.59086"
       id="path3836-4"
       inkscape:path-effect="#path-effect3838-2"
       inkscape:original-d="m 411.432,596.26005 c -3.59223,-2.15892 -15.99429,-4.2871 -28.42279,-5.32355 -12.4285,-1.03645 -24.88344,-0.98117 -28.58143,1.22685 -2.46723,1.47314 -10.60617,-4.72461 -12.73278,-3.01042 -6.20661,5.00293 -21.09187,5.80617 -29.0798,4.57974 -5.53879,-0.85041 -9.35991,-1.96585 -13.71575,-5.08683 -6.53357,-4.68131 -5.57625,4.00656 -13.48897,4.00656 -1.21251,0 -11.59949,-6.22048 -12.83258,-5.55785 -3.82192,2.05382 -9.56079,7.23546 -12.93847,10.1396 -2.30569,1.98244 -9.18669,-7.25366 -12.81148,-8.55224 -1.1047,-0.39577 -7.61823,6.44196 -8.89177,6.0509 -4.98758,-1.53155 -10.42392,-5.12431 -13.60092,-2.56345 -4.89887,3.94881 -9.23348,6.94267 -14.83785,8.14733 -1.25511,0.26978 -4.50456,-5.20959 -6.13354,-6.08495 -8.3668,-4.49614 -12.38428,-3.99364 -19.81601,0"
       inkscape:connector-curvature="0"
       sodipodi:nodetypes="csssssssssssssc" />
  </g>
</svg>
