<?xml version="1.0" encoding="UTF-8" standalone="no"?>
<!-- Created with Inkscape (http://www.inkscape.org/) -->

<svg
   xmlns:dc="http://purl.org/dc/elements/1.1/"
   xmlns:cc="http://creativecommons.org/ns#"
   xmlns:rdf="http://www.w3.org/1999/02/22-rdf-syntax-ns#"
   xmlns:svg="http://www.w3.org/2000/svg"
   xmlns="http://www.w3.org/2000/svg"
   xmlns:sodipodi="http://sodipodi.sourceforge.net/DTD/sodipodi-0.dtd"
   xmlns:inkscape="http://www.inkscape.org/namespaces/inkscape"
   width="294.4375"
   height="243.4375"
   id="svg2"
   version="1.1"
   inkscape:version="0.48.4 r9939"
   sodipodi:docname="1-profile.svg">
  <defs
     id="defs4">
    <inkscape:path-effect
       effect="spiro"
       id="path-effect3892"
       is_visible="true" />
    <inkscape:path-effect
       effect="spiro"
       id="path-effect3888"
       is_visible="true" />
    <inkscape:path-effect
       effect="spiro"
       id="path-effect3838"
       is_visible="true" />
    <inkscape:path-effect
       effect="spiro"
       id="path-effect3834"
       is_visible="true" />
    <inkscape:path-effect
       effect="spiro"
       id="path-effect3830"
       is_visible="true" />
    <inkscape:path-effect
       effect="spiro"
       id="path-effect3826"
       is_visible="true" />
    <inkscape:path-effect
       effect="spiro"
       id="path-effect3822"
       is_visible="true" />
    <inkscape:path-effect
       effect="spiro"
       id="path-effect3818"
       is_visible="true" />
    <inkscape:path-effect
       effect="spiro"
       id="path-effect3814"
       is_visible="true" />
    <inkscape:path-effect
       effect="spiro"
       id="path-effect3810"
       is_visible="true" />
    <inkscape:path-effect
       effect="spiro"
       id="path-effect3806"
       is_visible="true" />
    <inkscape:path-effect
       effect="spiro"
       id="path-effect3802"
       is_visible="true" />
    <inkscape:path-effect
       effect="spiro"
       id="path-effect3798"
       is_visible="true" />
    <inkscape:path-effect
       effect="spiro"
       id="path-effect3794"
       is_visible="true" />
    <inkscape:path-effect
       effect="spiro"
       id="path-effect3790"
       is_visible="true" />
    <inkscape:path-effect
       effect="spiro"
       id="path-effect3838-1"
       is_visible="true" />
    <inkscape:path-effect
       effect="spiro"
       id="path-effect3838-4"
       is_visible="true" />
    <inkscape:path-effect
       effect="spiro"
       id="path-effect3892-9"
       is_visible="true" />
    <inkscape:path-effect
       effect="spiro"
       id="path-effect3838-8"
       is_visible="true" />
    <inkscape:path-effect
       effect="spiro"
       id="path-effect3838-2"
       is_visible="true" />
    <inkscape:path-effect
       effect="spiro"
       id="path-effect3892-9-5"
       is_visible="true" />
  </defs>
  <sodipodi:namedview
     id="base"
     pagecolor="#ffffff"
     bordercolor="#666666"
     borderopacity="1.0"
     inkscape:pageopacity="0.0"
     inkscape:pageshadow="2"
     inkscape:zoom="1.5"
     inkscape:cx="-123.01655"
     inkscape:cy="147.1262"
     inkscape:document-units="px"
     inkscape:current-layer="layer1"
     showgrid="false"
     inkscape:window-width="1920"
     inkscape:window-height="1013"
     inkscape:window-x="-9"
     inkscape:window-y="-9"
     inkscape:window-maximized="1"
     fit-margin-top="0"
     fit-margin-left="0"
     fit-margin-right="0"
     fit-margin-bottom="0" />
  <metadata
     id="metadata7">
    <rdf:RDF>
      <cc:Work
         rdf:about="">
        <dc:format>image/svg+xml</dc:format>
        <dc:type
           rdf:resource="http://purl.org/dc/dcmitype/StillImage" />
        <dc:title />
      </cc:Work>
    </rdf:RDF>
  </metadata>
  <g
     inkscape:label="Layer 1"
     inkscape:groupmode="layer"
     id="layer1"
     transform="translate(-164.15625,-375.5625)">
    <rect
       style="fill:none;stroke:#b3b3b3;stroke-width:3;stroke-linecap:round;stroke-linejoin:round;stroke-miterlimit:4;stroke-opacity:1;stroke-dasharray:none;stroke-dashoffset:0"
       id="rect2985"
       width="291.42902"
       height="240.41631"
       x="165.66502"
       y="377.0752" />
    <g
       id="g3779"
       transform="matrix(2.5878963,0,0,2.5878963,173.81775,392.38314)"
       style="fill:#de87aa">
      <g
         id="i20"
         style="fill:#de87aa">
        <path
           id="path3770"
           d="M 24.94,23.372 C 24,22.956 22.376,22.364 20.767,21.804 V 19.496 C 25.125,18.278 24.453,16.284 23.903,12.14 23.251,7.227 22.413,3.654 18.895,3.8 17.975,3.026 17.162,2.52 15.038,2.591 12.913,2.662 9.424,4.923 8.494,8.501 7.573,12.044 3.9,21.223 11.24,20.739 v 1.066 c -1.608,0.56 -3.233,1.152 -4.172,1.568 -2.342,1.036 -3.107,2.476 -3.107,5.93 1.195,0 12.043,0 12.043,0 0,0 10.848,0 12.042,0 0,-3.455 -0.765,-4.894 -3.106,-5.931 z M 12.585,20.563 c 0.021,-0.004 0.043,-0.009 0.064,-0.013 0.22,0.197 0.452,0.375 0.693,0.536 0.774,0.518 1.649,0.842 2.619,0.842 0.982,0 1.867,-0.332 2.648,-0.862 0.286,-0.194 0.558,-0.415 0.815,-0.658 v 2.459 c -0.497,1.036 -1.99,3.509 -3.452,3.509 -1.458,0 -2.909,-2.472 -3.387,-3.504 V 20.563 z M 9.44,12.839 C 9.462,12.801 9.483,12.775 9.505,12.747 9.597,12.661 9.694,12.588 9.8,12.539 L 10.349,12.414 10.348,12.4 c 1.287,-0.255 2.896,-0.557 4.516,-2.889 0.425,0.566 -0.212,1.983 -0.212,1.983 0,0 2.62,-0.567 3.966,-3.4 0.716,2.333 2.283,4.007 2.96,4.273 l -0.004,0.046 0.569,0.13 c 0.004,0.001 0.01,0.004 0.015,0.005 0.07,0.036 0.136,0.078 0.198,0.125 0.041,0.042 0.083,0.092 0.127,0.167 0.493,0.839 -0.319,2.139 -0.793,2.462 -0.212,0.144 -0.378,0.19 -0.543,0.227 l -0.363,0.081 -0.124,0.35 c -0.261,0.738 -0.719,1.694 -1.348,2.546 -0.173,0.235 -0.36,0.46 -0.559,0.672 -0.232,0.247 -0.478,0.476 -0.743,0.672 -0.373,0.276 -0.778,0.49 -1.212,0.614 -0.268,0.076 -0.546,0.12 -0.836,0.12 -0.271,0 -0.532,-0.041 -0.784,-0.109 C 14.724,20.354 14.301,20.137 13.914,19.85 13.649,19.654 13.403,19.425 13.171,19.178 12.972,18.966 12.786,18.741 12.612,18.506 11.984,17.654 11.525,16.697 11.264,15.96 L 11.14,15.609 10.777,15.528 C 10.612,15.491 10.446,15.446 10.234,15.301 9.759,14.978 8.947,13.679 9.44,12.839 z"
           inkscape:connector-curvature="0"
           style="fill:#de87aa" />
      </g>
      <g
         id="Layer_1"
         style="fill:#de87aa" />
    </g>
    <text
       xml:space="preserve"
       style="font-size:66.94702911px;font-style:normal;font-variant:normal;font-weight:normal;font-stretch:normal;line-height:125%;letter-spacing:0px;word-spacing:0px;fill:#333333;fill-opacity:1;stroke:none;font-family:Lato;-inkscape-font-specification:Lato"
       x="261.90918"
       y="457.70233"
       id="text3784"
       sodipodi:linespacing="125%"><tspan
         sodipodi:role="line"
         id="tspan3786"
         x="261.90918"
         y="457.70233">Susan</tspan></text>
    <path
       style="fill:none;stroke:#b3b3b3;stroke-width:2;stroke-linecap:butt;stroke-linejoin:miter;stroke-miterlimit:4;stroke-opacity:1;stroke-dasharray:none"
       d="m 185.06825,496.28571 119.28571,0"
       id="path3014"
       inkscape:connector-curvature="0" />
    <path
       style="fill:none;stroke:#b3b3b3;stroke-width:2.10929108;stroke-linecap:butt;stroke-linejoin:miter;stroke-miterlimit:4;stroke-opacity:1;stroke-dasharray:none"
       d="m 185.18053,527 248.32344,0"
       id="path3014-1"
       inkscape:connector-curvature="0" />
    <path
       style="fill:none;stroke:#b3b3b3;stroke-width:2;stroke-linecap:butt;stroke-linejoin:miter;stroke-miterlimit:4;stroke-opacity:1;stroke-dasharray:none"
       d="m 185.06825,560.30759 119.28571,0"
       id="path3014-7"
       inkscape:connector-curvature="0" />
    <path
       style="fill:none;stroke:#b3b3b3;stroke-width:2.10977888;stroke-linecap:butt;stroke-linejoin:miter;stroke-miterlimit:4;stroke-opacity:1;stroke-dasharray:none"
       d="m 185.17803,593.02188 248.43803,0"
       id="path3014-1-4"
       inkscape:connector-curvature="0" />
  </g>
</svg>
