<?xml version="1.0" encoding="UTF-8" standalone="no"?>
<!-- Created with Inkscape (http://www.inkscape.org/) -->

<svg
   xmlns:dc="http://purl.org/dc/elements/1.1/"
   xmlns:cc="http://creativecommons.org/ns#"
   xmlns:rdf="http://www.w3.org/1999/02/22-rdf-syntax-ns#"
   xmlns:svg="http://www.w3.org/2000/svg"
   xmlns="http://www.w3.org/2000/svg"
   xmlns:sodipodi="http://sodipodi.sourceforge.net/DTD/sodipodi-0.dtd"
   xmlns:inkscape="http://www.inkscape.org/namespaces/inkscape"
   width="296.43753"
   height="245.40938"
   id="svg4644"
   version="1.1"
   inkscape:version="0.48.4 r9939"
   sodipodi:docname="3-record.svg">
  <defs
     id="defs4646">
    <inkscape:path-effect
       effect="spiro"
       id="path-effect5249"
       is_visible="true" />
    <inkscape:path-effect
       effect="spiro"
       id="path-effect5245"
       is_visible="true" />
    <inkscape:path-effect
       effect="spiro"
       id="path-effect5241"
       is_visible="true" />
    <inkscape:path-effect
       effect="spiro"
       id="path-effect5237"
       is_visible="true" />
    <inkscape:path-effect
       effect="spiro"
       id="path-effect5233"
       is_visible="true" />
    <inkscape:path-effect
       effect="spiro"
       id="path-effect5229"
       is_visible="true" />
    <inkscape:path-effect
       effect="spiro"
       id="path-effect5225"
       is_visible="true" />
    <inkscape:path-effect
       effect="spiro"
       id="path-effect4713"
       is_visible="true" />
    <inkscape:path-effect
       effect="spiro"
       id="path-effect4709"
       is_visible="true" />
    <inkscape:path-effect
       effect="spiro"
       id="path-effect4705"
       is_visible="true" />
  </defs>
  <sodipodi:namedview
     id="base"
     pagecolor="#ffffff"
     bordercolor="#666666"
     borderopacity="1.0"
     inkscape:pageopacity="0.0"
     inkscape:pageshadow="2"
     inkscape:zoom="0.98994949"
     inkscape:cx="199.18603"
     inkscape:cy="204.56401"
     inkscape:document-units="px"
     inkscape:current-layer="layer1"
     showgrid="false"
     inkscape:window-width="1920"
     inkscape:window-height="1013"
     inkscape:window-x="1911"
     inkscape:window-y="-9"
     inkscape:window-maximized="1"
     fit-margin-top="0"
     fit-margin-left="0"
     fit-margin-right="0"
     fit-margin-bottom="0" />
  <metadata
     id="metadata4649">
    <rdf:RDF>
      <cc:Work
         rdf:about="">
        <dc:format>image/svg+xml</dc:format>
        <dc:type
           rdf:resource="http://purl.org/dc/dcmitype/StillImage" />
        <dc:title></dc:title>
      </cc:Work>
    </rdf:RDF>
  </metadata>
  <g
     inkscape:label="Layer 1"
     inkscape:groupmode="layer"
     id="layer1"
     transform="translate(-196.06247,-381.09062)">
    <rect
       style="fill:none;stroke:#b3b3b3;stroke-width:3;stroke-linecap:round;stroke-linejoin:round;stroke-miterlimit:4;stroke-opacity:1;stroke-dasharray:none;stroke-dashoffset:0"
       id="rect2985"
       width="291.42902"
       height="240.41631"
       x="198.57121"
       y="383.58261" />
    <text
       xml:space="preserve"
       style="font-size:66.94702911px;font-style:normal;font-variant:normal;font-weight:normal;font-stretch:normal;line-height:125%;letter-spacing:0px;word-spacing:0px;fill:#333333;fill-opacity:1;stroke:none;font-family:Lato;-inkscape-font-specification:Lato"
       x="218.22166"
       y="455.99905"
       id="text3784"
       sodipodi:linespacing="125%"><tspan
         sodipodi:role="line"
         id="tspan3786"
         x="218.22166"
         y="455.99905">Susan</tspan></text>
    <path
       style="fill:none;stroke:#b3b3b3;stroke-width:2;stroke-linecap:butt;stroke-linejoin:miter;stroke-miterlimit:4;stroke-opacity:1;stroke-dasharray:none"
       d="m 221.72849,494.2529 c 0.4688,-3.24608 1.6881,-6.38143 3.53553,-9.09137 0.86226,-1.26483 1.88151,-2.45716 3.18275,-3.26343 0.65062,-0.40313 1.36776,-0.70501 2.11912,-0.85092 0.75135,-0.1459 1.53739,-0.13322 2.27427,0.0737 1.1562,0.32473 2.13906,1.10948 2.91208,2.02855 0.77303,0.91907 1.36113,1.97582 1.9667,3.0129 0.60556,1.03708 1.24161,2.07204 2.09012,2.92191 0.84852,0.84987 1.93808,1.50937 3.13263,1.63309 1.18848,0.1231 2.38499,-0.2945 3.38344,-0.95082 0.99845,-0.65631 1.82448,-1.5398 2.61135,-2.43895 0.78687,-0.89916 1.54978,-1.8277 2.4575,-2.60468 0.90772,-0.77697 1.98297,-1.40354 3.16446,-1.5817 1.38994,-0.20959 2.81572,0.22085 4.03197,0.92556 1.21624,0.70471 2.25634,1.67102 3.28621,2.6277 1.02988,0.95668 2.07246,1.92083 3.2919,2.62 1.21944,0.69917 2.64916,1.12004 4.03714,0.89781 0.96106,-0.15387 1.85658,-0.60848 2.62789,-1.20211 0.77132,-0.59362 1.42695,-1.32389 2.03641,-2.08275 1.21894,-1.51771 2.30838,-3.20247 3.92199,-4.29128 1.33398,-0.90013 2.97905,-1.3294 4.58276,-1.19584 1.60372,0.13355 3.15511,0.82901 4.32183,1.93739 1.16672,1.10838 1.94078,2.6221 2.15635,4.21686 0.21557,1.59477 -0.12883,3.25967 -0.95941,4.63803"
       id="path4711"
       inkscape:path-effect="#path-effect4713"
       inkscape:original-d="m 221.72849,494.2529 c 3.93686,-1.10459 1.9369,-7.49274 3.53553,-9.09137 0.25791,-0.25792 6.59895,-4.69207 7.57614,-4.04061 2.61736,1.7449 7.97571,8.70691 10.10153,9.59645 10.695,4.47527 7.3778,-9.21561 11.61675,-7.57615 5.43894,2.10357 11.61871,4.04256 14.64722,7.07107 4.5505,4.5505 6.49031,-10.72011 8.58629,-7.57614 3.16772,4.75157 10.10153,9.59644 10.10153,9.59644"
       inkscape:connector-curvature="0"
       sodipodi:nodetypes="ccsssssc" />
    <path
       style="fill:none;stroke:#b3b3b3;stroke-width:2;stroke-linecap:butt;stroke-linejoin:miter;stroke-miterlimit:4;stroke-opacity:1;stroke-dasharray:none"
       d="m 223.24371,525.56763 c 1.88557,-3.13472 4.43834,-5.86592 7.43872,-7.95866 0.76497,-0.53356 1.5655,-1.02955 2.44034,-1.35285 0.87484,-0.3233 1.83321,-0.46739 2.74785,-0.28494 1.20558,0.24049 2.23676,1.02232 3.08617,1.911 0.84942,0.88869 1.56163,1.90152 2.4189,2.78263 1.60269,1.64726 3.76054,2.81457 6.05392,2.9646 1.14668,0.075 2.31365,-0.10504 3.36991,-0.55764 1.05626,-0.45259 1.99841,-1.18053 2.67262,-2.1111 0.53648,-0.74047 0.89708,-1.59288 1.38938,-2.36343 0.24615,-0.38528 0.52698,-0.7517 0.86671,-1.05766 0.33973,-0.30595 0.74105,-0.55049 1.18227,-0.67028 0.43465,-0.11801 0.89883,-0.11184 1.33734,-0.009 0.43851,0.10273 0.85195,0.29999 1.22424,0.55346 0.74459,0.50692 1.31661,1.22611 1.84048,1.95887 0.52387,0.73276 1.01604,1.49573 1.64872,2.1369 0.63268,0.64116 1.43242,1.16186 2.32632,1.27286 0.82571,0.10253 1.66439,-0.15398 2.38657,-0.56723 0.72218,-0.41325 1.34502,-0.97678 1.95774,-1.53971 0.61272,-0.56293 1.22705,-1.13404 1.93795,-1.5664 0.7109,-0.43237 1.5353,-0.72149 2.36531,-0.66314 0.95719,0.0673 1.82704,0.58534 2.56617,1.19724 0.73913,0.61189 1.38831,1.32948 2.15282,1.90936 1.52677,1.15806 3.53023,1.71474 5.41469,1.36698 0.94222,-0.17388 1.84533,-0.56806 2.60179,-1.1561 0.75646,-0.58805 1.36365,-1.37036 1.72791,-2.25656 0.52526,-1.27789 0.52526,-2.76272 0,-4.04061"
       id="path5223"
       inkscape:path-effect="#path-effect5225"
       inkscape:original-d="m 223.24371,525.56763 c 0.45742,-2.40588 5.65113,-6.17106 7.43872,-7.95866 2.4667,-2.4667 2.48373,-4.34224 5.18819,-1.63779 0.89946,0.89946 4.39237,3.58093 5.50507,4.69363 1.91913,1.91913 9.35943,0.29586 12.09645,0.29586 2.27185,0 1.22126,-8.05186 3.43836,-4.09137 8.60508,15.37159 -1.65721,16.77134 8.3771,5.91298 1.05162,-1.05163 7.77429,-4.33648 8.64757,-4.33648 10.36795,0 2.37795,0.76556 4.71899,3.1066 2.8034,2.8034 8.89398,-0.34487 9.74439,-2.04568 0.43039,-0.86078 0,-3.07069 0,-4.04061"
       inkscape:connector-curvature="0"
       sodipodi:nodetypes="cssssscsssc" />
    <path
       style="fill:none;stroke:#b3b3b3;stroke-width:2;stroke-linecap:butt;stroke-linejoin:miter;stroke-miterlimit:4;stroke-opacity:1;stroke-dasharray:none"
       d="m 220.68244,558.48424 c 0.94856,-1.49583 2.29309,-2.73804 3.85916,-3.5655 1.56607,-0.82746 3.34993,-1.23818 5.12017,-1.17888 2.06949,0.0693 4.08302,0.7703 5.88761,1.78572 2.04614,1.15133 3.84941,2.70109 5.91298,3.82088 0.53809,0.29199 1.09857,0.55602 1.69661,0.68694 0.59805,0.13092 1.24061,0.12126 1.80302,-0.12059 0.40411,-0.17377 0.75411,-0.46218 1.0265,-0.80759 0.27239,-0.3454 0.46914,-0.74664 0.60525,-1.16494 0.27221,-0.8366 0.30376,-1.72944 0.33841,-2.60853 0.0346,-0.87908 0.0775,-1.77298 0.3702,-2.60264 0.14635,-0.41482 0.35558,-0.81025 0.64052,-1.14537 0.28494,-0.33513 0.64757,-0.6086 1.05973,-0.7623 0.64636,-0.24104 1.36766,-0.17583 2.03918,-0.0179 0.67151,0.15795 1.32181,0.40465 2.00143,0.52296 0.67197,0.11698 1.35852,0.10609 2.04,0.13479 0.68148,0.0287 1.37414,0.10053 2.00061,0.37028 0.67611,0.29112 1.24205,0.80174 1.68108,1.39262 0.43902,0.59088 0.75869,1.26168 1.03461,1.94415 0.55183,1.36493 0.95899,2.82944 1.89128,3.9689 1.03435,1.2642 2.67988,1.99662 4.31244,1.94355 1.63256,-0.0531 3.21807,-0.88238 4.21258,-2.17815 0.86936,-1.13271 1.2927,-2.56998 2.22952,-3.64757 0.63336,-0.72853 1.48164,-1.25909 2.39971,-1.55748 0.91807,-0.2984 1.90362,-0.36895 2.86214,-0.25437 1.91704,0.22915 3.68491,1.18034 5.20733,2.36769 1.31692,1.02708 2.48702,2.24212 3.46374,3.59681"
       id="path5227"
       inkscape:path-effect="#path-effect5229"
       inkscape:original-d="m 220.68244,558.48424 c -0.15802,-4.35831 5.60963,-4.42057 8.97933,-4.74438 2.04142,-0.19617 4.02699,0.92318 5.88761,1.78572 2.12904,0.98697 3.72261,2.97871 5.91298,3.82088 1.103,0.42409 2.46035,1.12881 3.49963,0.56635 2.91654,-1.57845 1.15302,-7.46056 4.04061,-9.09137 1.18189,-0.66749 2.69374,0.33672 4.04061,0.50508 1.34687,0.16836 2.89513,-0.22313 4.04061,0.50507 2.4296,1.54453 2.0672,5.94989 4.60697,7.30567 2.5078,1.3387 6.06489,1.18982 8.52502,-0.2346 1.2332,-0.71402 0.96856,-2.98378 2.22952,-3.64757 3.09234,-1.62786 7.29069,-0.89666 10.46918,0.55584 1.5139,0.69182 1.62502,-0.0806 3.46374,3.59681"
       inkscape:connector-curvature="0"
       sodipodi:nodetypes="caaaaaaaaaaac" />
    <path
       style="fill:none;stroke:#b3b3b3;stroke-width:2;stroke-linecap:butt;stroke-linejoin:miter;stroke-miterlimit:4;stroke-opacity:1;stroke-dasharray:none"
       d="m 225.26402,593.24785 c 2.55193,-1.36917 5.16775,-2.61924 7.83612,-3.74475 1.34552,-0.56754 2.76297,-1.11323 4.21954,-1.00873 0.72829,0.0522 1.45335,0.27464 2.04556,0.70174 0.59221,0.4271 1.04224,1.06809 1.17362,1.78633 0.0988,0.53996 0.0188,1.09474 -0.0613,1.63778 -0.0801,0.54305 -0.16007,1.09784 -0.0612,1.63778 0.12885,0.70375 0.56567,1.33594 1.14991,1.74889 0.58424,0.41295 1.30643,0.61269 2.02187,0.61221 0.71545,-4.8e-4 1.42363,-0.19482 2.06529,-0.51126 0.64166,-0.31645 1.21924,-0.75258 1.7392,-1.24401 1.03992,-0.98285 1.84921,-2.17908 2.76109,-3.28177 0.91187,-1.1027 1.97319,-2.1446 3.30796,-2.66018 1.25641,-0.48531 2.64683,-0.46353 3.98989,-0.36224 1.34307,0.10129 2.69874,0.27488 4.03006,0.0707 1.6894,-0.25906 3.22008,-1.10593 4.77431,-1.81697 0.77711,-0.35552 1.57224,-0.68103 2.40246,-0.88357 0.83023,-0.20254 1.69987,-0.27956 2.54223,-0.13557 1.37684,0.23536 2.59373,1.04288 3.62493,1.98505 1.0312,0.94218 1.91807,2.03165 2.93055,2.99392 3.2187,3.05909 7.72366,4.71915 12.15772,4.48006"
       id="path5231"
       inkscape:path-effect="#path-effect5233"
       inkscape:original-d="m 225.26402,593.24785 c 0.5752,-9.47528 5.59625,-12.70423 7.83612,-3.74475 0.3042,1.21679 6.40437,0.44501 7.43872,1.47934 0.79768,0.79768 -0.31997,3.6375 -0.12255,3.27556 0.47721,-0.87489 9.3058,-9.07564 13.04532,-5.33612 2.20651,2.20651 3.82163,1.80765 8.01995,-0.29151 4.10149,-2.05075 5.43655,-0.69489 9.719,-2.83611 2.0816,-1.0408 0.78477,6.90254 6.55548,4.97897 2.12417,-0.70806 8.72134,4.48006 12.15772,4.48006"
       inkscape:connector-curvature="0"
       sodipodi:nodetypes="csssssssc" />
    <path
       style="fill:none;stroke:#b3b3b3;stroke-width:2;stroke-linecap:butt;stroke-linejoin:miter;stroke-miterlimit:4;stroke-opacity:1;stroke-dasharray:none"
       d="m 313.14729,491.22244 c 2.09907,0.0122 4.18485,-0.93584 5.55584,-2.52538 1.44098,-1.67069 2.04358,-3.88471 3.06412,-5.84076 0.51027,-0.97803 1.14153,-1.91121 1.98764,-2.61903 0.84611,-0.70781 1.92703,-1.17611 3.02946,-1.13666 0.91623,0.0328 1.81494,0.42402 2.46323,1.0723 0.64829,0.64829 1.03952,1.547 1.07231,2.46323 l 3.41297,5.01487 c 0.86818,1.42451 2.35137,2.45935 3.988,2.78247 1.63662,0.32313 3.40181,-0.0704 4.74624,-1.05803 0.96367,-0.70795 1.69655,-1.68682 2.30799,-2.71444 0.61143,-1.02761 1.11498,-2.11591 1.71234,-3.15177 0.59737,-1.03586 1.3012,-2.03202 2.23511,-2.77879 0.93391,-0.74676 2.12424,-1.22688 3.31563,-1.12476 1.15145,0.0987 2.20793,0.73007 3.01694,1.55535 0.80901,0.82527 1.39893,1.83717 1.94165,2.85747 0.54272,1.02031 1.05019,2.06589 1.72684,3.00276 0.67666,0.93686 1.54424,1.77181 2.61515,2.20625 0.83331,0.33805 1.76317,0.41847 2.65004,0.26966 0.88688,-0.14881 1.73031,-0.5224 2.46199,-1.04522 1.27356,-0.91003 2.18243,-2.234 3.01742,-3.55798 0.83499,-1.32397 1.63816,-2.695 2.77302,-3.77306 1.00246,-0.95228 2.26522,-1.65379 3.62964,-1.87766 1.36443,-0.22387 2.82761,0.0552 3.9465,0.8675 0.97635,0.70883 1.63582,1.75871 2.34834,2.73236 0.35627,0.48683 0.73304,0.96227 1.1756,1.37223 0.44257,0.40995 0.95489,0.75431 1.52682,0.94618 1.02553,0.34405 2.17022,0.16988 3.16028,-0.26583 0.99007,-0.4357 1.85103,-1.11468 2.68159,-1.80767 0.83056,-0.693 1.64968,-1.4123 2.58912,-1.94851 0.93943,-0.53622 2.02462,-0.88294 3.09911,-0.75827 1.03635,0.12024 1.98913,0.67382 2.73167,1.4067 0.74254,0.73288 1.2927,1.63804 1.76189,2.56989 0.46919,0.93184 0.86501,1.89957 1.34568,2.82555 0.48066,0.92598 1.05437,1.81896 1.82356,2.52382 0.86281,0.79065 1.96048,1.32174 3.11592,1.50757 1.15543,0.18583 2.36428,0.0257 3.43148,-0.45454 1.06721,-0.48024 1.98876,-1.27879 2.61597,-2.26681 0.6272,-0.98802 0.9577,-2.16178 0.93816,-3.3319 2.70066,-1.72042 5.77977,-2.84322 8.95395,-3.26506 2.01873,-0.26829 4.10671,-0.25056 6.0504,0.35715 1.92602,0.60218 3.62503,1.75158 5.32005,2.84659 1.69503,1.09502 3.46036,2.16841 5.43449,2.5867 0.87406,0.1852 1.77162,0.23751 2.64797,0.41156 0.87635,0.17404 1.75647,0.48678 2.40279,1.10367 0.34519,0.32948 0.61722,0.73938 1.01015,1.01015 0.49812,0.34326 1.15483,0.42129 1.73845,0.26214 0.58363,-0.15915 1.09358,-0.54016 1.46404,-1.01839 0.37046,-0.47823 0.60794,-1.04968 0.7504,-1.63761 0.14245,-0.58792 0.19314,-1.19425 0.2176,-1.79869 0.0489,-1.20888 -0.001,-2.44708 0.37735,-3.59619 0.18929,-0.57456 0.48858,-1.12031 0.91971,-1.54466 0.43112,-0.42436 1.00044,-0.72081 1.60352,-0.76813 0.68377,-0.0537 1.366,0.21455 1.90892,0.63368 0.54291,0.41914 0.9601,0.98011 1.31606,1.56638 0.35597,0.58628 0.65751,1.20425 1.01369,1.79039 0.35617,0.58615 0.7738,1.14685 1.31717,1.56539 0.64557,0.49726 1.45797,0.77387 2.27285,0.77387 0.81487,0 1.62727,-0.27661 2.27284,-0.77387"
       id="path5235"
       inkscape:path-effect="#path-effect5237"
       inkscape:original-d="m 313.14729,491.22244 c 1.78757,-0.36496 4.94382,-0.68933 5.55584,-2.52538 0.59253,-1.77758 5.66485,-11.20736 8.08122,-9.59645 1.45785,0.9719 2.35181,2.35181 3.53554,3.53553 3.75569,2.6919 2.27212,1.55107 3.41297,5.01487 1.17649,1.17649 7.03262,2.57525 8.73424,1.72444 4.28991,-2.14495 3.87941,-10.57298 9.57107,-9.76976 5.17863,1.0459 6.39011,6.58465 9.30058,9.62183 0.4163,0.4163 4.30177,0.0347 5.11203,-0.77556 0.95822,-0.95822 4.68978,-10.40528 5.79044,-7.33104 4.69881,13.12417 6.70216,12.01585 7.57614,-1.01016 0.051,-0.75942 -0.20328,12.93184 5.05076,5.05077 0.7807,-1.17105 10.91672,-5.39366 11.5301,-4.78028 4.12552,4.12552 2.18527,6.5872 7.6628,9.32596 3.64406,1.82203 7.20419,-3.57991 10.10153,-4.54568 2.66456,0.51523 8.44934,-1.17725 8.95395,-3.26506 0.0913,-0.36522 5.72132,0.17432 6.0504,0.35715 7.2882,4.049 2.94974,2.83169 10.75454,5.43329 0.81904,0.27301 4.50657,0.97104 5.05076,1.51523 0.33672,0.33671 0.85957,1.4619 1.01015,1.01015 1.79448,-5.38344 1.1813,-7.15664 7.07107,-10.10153 1.55234,-0.77617 4.75149,4.75149 5.55584,5.55584 0.46043,0.46043 3.82225,0 4.54569,0"
       inkscape:connector-curvature="0"
       sodipodi:nodetypes="cssccsccsssssscccscsssc" />
    <path
       style="fill:none;stroke:#b3b3b3;stroke-width:2;stroke-linecap:butt;stroke-linejoin:miter;stroke-miterlimit:4;stroke-opacity:1;stroke-dasharray:none"
       d="m 309.57586,522.56255 c 2.17035,-1.97455 4.93662,-3.28536 7.8392,-3.71465 2.90259,-0.42928 5.92986,0.0247 8.57886,1.28644 2.0521,0.97746 3.8624,2.41571 5.93569,3.34737 1.03665,0.46584 2.1437,0.80278 3.27873,0.86072 1.13502,0.0579 2.30193,-0.17608 3.26455,-0.78024 0.74084,-0.46497 1.33705,-1.13007 1.84434,-1.8426 0.50729,-0.71253 0.93438,-1.47834 1.40631,-2.21477 0.47193,-0.73642 0.99562,-1.45106 1.66072,-2.01912 0.66509,-0.56806 1.48587,-0.98413 2.35839,-1.04534 0.63463,-0.0445 1.27537,0.10038 1.85123,0.37079 0.57586,0.27042 1.089,0.66329 1.53656,1.11542 0.89513,0.90427 1.52439,2.0305 2.18971,3.11507 0.66532,1.08458 1.40005,2.16526 2.43548,2.90475 0.51771,0.36974 1.10715,0.64737 1.73265,0.76351 0.6255,0.11614 1.28782,0.0656 1.87113,-0.18832 0.80516,-0.35055 1.41035,-1.06396 1.79185,-1.85492 0.3815,-0.79097 0.56217,-1.6619 0.71514,-2.52663 0.15297,-0.86474 0.28307,-1.73927 0.57362,-2.56797 0.29055,-0.8287 0.75809,-1.62095 1.46508,-2.14185 0.58379,-0.43012 1.30926,-0.65402 2.03425,-0.66827 0.72499,-0.0143 1.44791,0.17602 2.09196,0.50919 1.28812,0.66633 2.22857,1.87174 2.86482,3.17498 0.63625,1.30324 1.00284,2.71779 1.41484,4.1083 0.41201,1.3905 0.88268,2.7865 1.69565,3.98747 0.9214,1.36113 2.26582,2.4229 3.78491,3.0506 1.51909,0.62771 3.20634,0.8254 4.83664,0.61622 3.26061,-0.41838 6.19657,-2.46427 8.04597,-5.18204 1.1304,-1.66117 1.88936,-3.55813 3.07853,-5.17774 0.59459,-0.8098 1.30094,-1.54995 2.14996,-2.08706 0.84902,-0.53711 1.84916,-0.86296 2.85273,-0.81643 1.27623,0.0592 2.46693,0.71237 3.4095,1.57481 0.94258,0.86244 1.67125,1.9283 2.39206,2.98314 0.72082,1.05484 1.4517,2.11952 2.39754,2.97839 0.94584,0.85886 2.14101,1.50556 3.41765,1.55504 0.88862,0.0344 1.7765,-0.224 2.546,-0.66976 0.76951,-0.44575 1.42452,-1.07322 1.96277,-1.78112 1.07649,-1.4158 1.68274,-3.12286 2.31438,-4.7855 0.63165,-1.66263 1.32923,-3.34998 2.53958,-4.6532 0.60517,-0.65161 1.33599,-1.19653 2.16267,-1.5243 0.82668,-0.32776 1.752,-0.43067 2.61674,-0.22318 0.70584,0.16936 1.35539,0.54006 1.8981,1.02209 0.54272,0.48202 0.9818,1.07309 1.33626,1.70653 0.70892,1.26688 1.08029,2.68864 1.52385,4.07096 0.44356,1.38232 0.98643,2.7748 1.96136,3.85047 0.48747,0.53784 1.08054,0.98748 1.75272,1.26145 0.67218,0.27397 1.42543,0.36646 2.13431,0.21033 0.86861,-0.19131 1.62571,-0.74192 2.21147,-1.41122 0.58576,-0.6693 1.01846,-1.45633 1.43319,-2.24315 0.41473,-0.78682 0.8194,-1.58534 1.35941,-2.29207 0.54001,-0.70673 1.23142,-1.32494 2.067,-1.62971 1.06086,-0.38693 2.27147,-0.22757 3.28567,0.26894 1.01421,0.49651 1.84868,1.3044 2.53541,2.20081 1.37345,1.79281 2.22014,3.97386 3.77537,5.61148 1.0916,1.14942 2.50903,1.98596 4.04288,2.38602 1.53385,0.40006 3.1793,0.36238 4.69323,-0.10746 1.51393,-0.46984 2.8916,-1.37037 3.92944,-2.56855 1.03785,-1.19817 1.73262,-2.69022 1.98166,-4.2557"
       id="path5239"
       inkscape:path-effect="#path-effect5241"
       inkscape:original-d="m 309.57586,522.56255 c 0.0868,-1.29019 14.14408,-3.94419 16.41806,-2.42821 2.7491,1.83274 8.3525,5.49108 12.47897,3.42785 4.73712,-2.36856 -1.65047,-6.32901 7.26976,-7.12183 5.45918,-0.4852 7.16244,7.5471 11.61676,8.08122 1.09782,0.13164 2.22893,-9.86363 4.54569,-9.09137 1.94088,0.64696 8.56399,13.92691 10.10152,11.11167 8.87654,-16.25313 12.70627,0.19568 16.66752,-1.51522 2.9149,-1.25898 3.34947,-9.65847 8.08122,-8.08123 3.62854,1.20952 7.66124,11.06913 11.61675,9.09138 1.94032,-0.97016 9.76056,-11.44627 14.14214,-13.63706 1.54192,-0.77096 4.91432,10.2244 10.6066,12.12183 4.02124,1.34041 5.29968,-5.80476 7.07107,-7.57615 1.01197,-1.01197 7.03299,6.7995 9.59645,8.08123 1.61505,0.80752 13.30113,-4.54569 14.64721,-4.54569"
       inkscape:connector-curvature="0"
       sodipodi:nodetypes="csssssssssssssc" />
    <path
       style="fill:none;stroke:#b3b3b3;stroke-width:2;stroke-linecap:butt;stroke-linejoin:miter;stroke-miterlimit:4;stroke-opacity:1;stroke-dasharray:none"
       d="m 314.66252,551.83159 c 0.0123,1.54783 0.44496,3.0903 1.23939,4.41877 0.79442,1.32847 1.94855,2.43948 3.3063,3.18276 0.94932,0.51969 2.00766,0.86298 3.08939,0.89686 1.08172,0.0339 2.1868,-0.25501 3.05818,-0.89686 0.61462,-0.45272 1.09668,-1.06356 1.50345,-1.70951 0.40676,-0.64596 0.74489,-1.33228 1.12323,-1.99528 0.37834,-0.663 0.80219,-1.30912 1.35279,-1.83784 0.55061,-0.52872 1.23972,-0.93656 1.99479,-1.04874 0.48396,-0.0719 0.98255,-0.0206 1.45088,0.12102 0.46833,0.1416 0.90718,0.37195 1.30727,0.65358 0.80017,0.56326 1.43927,1.32197 2.05617,2.08156 0.6169,0.75958 1.22815,1.53605 1.98995,2.15022 0.7618,0.61416 1.70175,1.06083 2.68014,1.04402 0.72231,-0.0124 1.42351,-0.27656 2.0385,-0.65559 0.61499,-0.37904 1.15244,-0.87023 1.66996,-1.37428 0.51751,-0.50404 1.0207,-1.0254 1.58389,-1.47784 0.56318,-0.45244 1.19376,-0.83752 1.89075,-1.02747 0.61815,-0.16846 1.27484,-0.17822 1.90506,-0.0628 0.63021,0.11541 1.23459,0.35387 1.79233,0.66918 1.11547,0.63061 2.03354,1.55544 2.88876,2.50967 0.85522,0.95423 1.66802,1.9547 2.63936,2.79044 0.97133,0.83574 2.13015,1.50883 3.4014,1.66968 0.87132,0.11025 1.76492,-0.0259 2.58814,-0.33193 0.82322,-0.30602 1.57846,-0.77817 2.257,-1.33578 1.35708,-1.11522 2.40098,-2.55483 3.48948,-3.93342 1.08851,-1.3786 2.26821,-2.73835 3.79445,-3.60781 0.76312,-0.43474 1.60759,-0.73899 2.4814,-0.82739 0.8738,-0.0884 1.7775,0.0453 2.56213,0.43988 0.89113,0.44816 1.59181,1.20841 2.14294,2.03981 0.55112,0.8314 0.96945,1.7419 1.43418,2.6245 0.46473,0.8826 0.98629,1.75129 1.70368,2.44433 0.71739,0.69305 1.6555,1.20122 2.65248,1.23256 0.67619,0.0213 1.35101,-0.17842 1.93269,-0.52387 0.58167,-0.34545 1.07259,-0.8325 1.46358,-1.3846 0.78198,-1.10419 1.15961,-2.43922 1.46118,-3.75823 0.30158,-1.319 0.54549,-2.66595 1.10701,-3.89698 0.28076,-0.61551 0.64128,-1.19876 1.10366,-1.6926 0.46238,-0.49385 1.02947,-0.89668 1.66611,-1.12553 0.64381,-0.23143 1.34718,-0.28024 2.02371,-0.17847 0.67653,0.10178 1.32669,0.35115 1.91865,0.69413 1.18392,0.68595 2.12006,1.72757 2.94793,2.81699 0.82786,1.08943 1.57089,2.24648 2.48164,3.26762 0.91076,1.02113 2.01982,1.91653 3.33112,2.30727 1.21788,0.3629 2.53685,0.26609 3.76213,-0.071 1.22528,-0.33707 2.37325,-0.90434 3.50331,-1.48562 1.13006,-0.58128 2.25674,-1.18247 3.45885,-1.59462 1.20211,-0.41216 2.49626,-0.63008 3.74961,-0.42021 0.95214,0.15943 1.85042,0.56024 2.67746,1.05823 0.82704,0.49798 1.59024,1.09356 2.35917,1.67728 0.76894,0.58372 1.54944,1.15938 2.40219,1.61194 0.85274,0.45256 1.78558,0.78062 2.74936,0.83637 1.15887,0.067 2.31389,-0.26311 3.35493,-0.77664 1.04104,-0.51352 1.98207,-1.20598 2.90699,-1.90739 0.92493,-0.70142 1.8441,-1.41839 2.85496,-1.98905 1.01085,-0.57065 2.12681,-0.99392 3.28595,-1.05607 1.13866,-0.0611 2.2765,0.22979 3.3142,0.70249 1.0377,0.47271 1.98442,1.12303 2.89474,1.80974 1.82066,1.37343 3.58454,2.9415 5.76496,3.60996 1.81713,0.55709 3.83713,0.42286 5.56457,-0.36976 1.72745,-0.79261 3.14658,-2.2364 3.90933,-3.97723"
       id="path5243"
       inkscape:path-effect="#path-effect5245"
       inkscape:original-d="m 314.66252,551.83159 c 2.36025,4.25983 4.02487,3.26935 4.54569,7.60153 0.069,0.57373 5.92265,0.22492 6.14757,0 1.51144,-1.51144 2.70718,-6.59137 5.97426,-6.59137 3.27055,0 7.41253,5.01446 9.48441,6.0504 2.65639,1.3282 5.69142,-3.04349 7.1831,-4.53518 0.23804,-0.23803 8.17657,5.35098 12.62691,7.57615 6.05403,3.02701 15.53069,-11.23836 17.1726,-9.59645 1.91703,1.91704 4.61556,8.3412 7.93328,8.3412 0.3666,0 6.52518,-11.27728 8.73423,-12.38181 1.99398,-0.99699 3.97163,13.11879 12.70305,8.90754 12.9041,-6.22376 -2.93487,-7.44685 14.4739,-3.57142 4.50422,1.0027 7.37093,8.56453 10.18818,5.18382 3.38106,-4.05727 12.03154,-6.10044 12.40283,-5.72915 9.64999,10.16557 7.73754,10.8882 11.9739,6.12219 1.50603,-1.69433 7.3615,-4.34699 9.4739,-4.34699"
       inkscape:connector-curvature="0"
       sodipodi:nodetypes="csssscssssssscsc" />
    <path
       style="fill:none;stroke:#b3b3b3;stroke-width:2;stroke-linecap:butt;stroke-linejoin:miter;stroke-miterlimit:4;stroke-opacity:1;stroke-dasharray:none"
       d="m 314.15744,595.26815 c 0.37996,-1.68233 1.26927,-3.24611 2.52088,-4.43273 1.25161,-1.18662 2.86053,-1.99138 4.56071,-2.28119 1.96827,-0.33551 4.00232,0.012 5.88966,0.66367 1.88734,0.65163 3.6558,1.59919 5.43558,2.5042 1.67872,0.85362 3.41287,1.68435 5.28045,1.92704 0.93379,0.12135 1.89366,0.0907 2.8021,-0.15717 0.90843,-0.24786 1.76407,-0.71893 2.41201,-1.40221 0.57882,-0.6104 0.97739,-1.36919 1.3036,-2.14457 0.32621,-0.77537 0.58755,-1.57752 0.93449,-2.34384 0.34695,-0.76632 0.78837,-1.50605 1.41451,-2.0678 0.62615,-0.56175 1.45718,-0.93142 2.29628,-0.872 0.72501,0.0513 1.40359,0.4178 1.92842,0.92061 0.52482,0.50282 0.90866,1.13545 1.2232,1.79069 0.62909,1.31047 1.02565,2.77261 1.99631,3.85469 0.87219,0.9723 2.15662,1.53862 3.4603,1.61919 1.30369,0.0806 2.61732,-0.30638 3.72281,-1.00207 2.02093,-1.27177 3.27015,-3.44573 4.97185,-5.12078 0.85084,-0.83752 1.84386,-1.56524 2.98498,-1.91631 0.57055,-0.17554 1.17362,-0.25392 1.76826,-0.20158 0.59465,0.0523 1.18049,0.23756 1.68245,0.56064 0.51794,0.33336 0.93716,0.80614 1.25874,1.33148 0.32158,0.52534 0.54918,1.10332 0.73143,1.69169 0.3645,1.17675 0.55528,2.41041 1.04029,3.54282 0.64507,1.50612 1.82776,2.79287 3.31616,3.47782 1.4884,0.68495 3.27447,0.73789 4.76506,0.0577 1.52988,-0.6981 2.6306,-2.06162 3.71776,-3.34457 0.54359,-0.64147 1.10037,-1.27643 1.7391,-1.82322 0.63874,-0.5468 1.36558,-1.00574 2.17005,-1.25026 0.91345,-0.27764 1.88484,-0.26929 2.83885,-0.30593 0.95401,-0.0366 1.93743,-0.12948 2.77826,-0.58168 0.5238,-0.2817 0.96856,-0.69153 1.36473,-1.13511 0.39618,-0.44358 0.74887,-0.92393 1.12941,-1.38099 0.38054,-0.45706 0.79338,-0.89464 1.28505,-1.22927 0.49167,-0.33463 1.06988,-0.56272 1.66461,-0.56572 0.41033,-0.002 0.81867,0.10339 1.18516,0.28795 0.36649,0.18457 0.6916,0.44698 0.96328,0.7545 0.54337,0.61503 0.86665,1.3978 1.05776,2.19592 0.38221,1.59624 0.27354,3.30029 0.83441,4.84285 0.41047,1.12891 1.17768,2.1248 2.16338,2.81133 0.98571,0.68652 2.18519,1.06078 3.38641,1.0586 1.20121,-0.002 2.39877,-0.38047 3.3844,-1.06709 0.98564,-0.68661 1.7552,-1.6783 2.17749,-2.80284 0.34314,-0.91378 0.45854,-1.89785 0.7638,-2.82497 0.15263,-0.46355 0.35451,-0.91499 0.64327,-1.30844 0.28876,-0.39345 0.66858,-0.72781 1.11831,-0.91735 0.61704,-0.26005 1.32698,-0.23121 1.96876,-0.0402 0.64177,0.19102 1.22698,0.53368 1.79135,0.89403 0.56437,0.36035 1.118,0.74319 1.72438,1.0272 0.60638,0.28402 1.27756,0.46702 1.94372,0.39925 0.62944,-0.064 1.21838,-0.34782 1.74247,-0.70226 0.52409,-0.35444 0.99482,-0.78093 1.49136,-1.17304 0.49654,-0.3921 1.02874,-0.75496 1.62878,-0.9556 0.60003,-0.20065 1.27957,-0.22538 1.85132,0.0455 0.57927,0.27448 0.99331,0.82672 1.2146,1.42832 0.22128,0.6016 0.26867,1.25285 0.26898,1.89386 3.2e-4,0.64101 -0.0442,1.28304 0.002,1.92236 0.0463,0.63933 0.18975,1.28619 0.53461,1.82653 0.27843,0.43626 0.6817,0.7885 1.1418,1.02548 0.4601,0.23698 0.97555,0.36027 1.49274,0.37938 1.03438,0.0382 2.05277,-0.33671 2.9213,-0.89979 1.20589,-0.78179 2.14412,-1.90465 3.22297,-2.8541 0.53943,-0.47472 1.1202,-0.91002 1.76674,-1.22357 0.64655,-0.31356 1.3636,-0.50213 2.08136,-0.46801 1.11812,0.0532 2.14634,0.63596 3.02039,1.33527 0.87406,0.69932 1.64108,1.52711 2.53545,2.20026 1.34968,1.01583 2.97839,1.657 4.65836,1.83384 1.67996,0.17684 3.40648,-0.11115 4.93809,-0.82369"
       id="path5247"
       inkscape:path-effect="#path-effect5249"
       inkscape:original-d="m 314.15744,595.26815 c 0.005,-2.33355 6.00923,-4.56926 7.08159,-6.71392 8.89686,-17.79374 4.97749,4.75481 11.32524,3.16787 2.11958,-0.52989 10.0723,2.0567 10.49456,0.36766 0.16931,-0.67723 5.10971,-7.42821 5.94888,-7.42821 2.19513,0 3.93029,4.73953 5.14793,6.56599 2.56187,3.8428 2.88086,0.18689 7.18311,0.61712 14.28319,1.42832 4.95779,-3.45316 11.40754,-6.67803 2.41528,-1.20764 2.18651,5.72204 3.03046,6.56599 1.6172,1.6172 5.7523,2.75922 8.08122,3.53553 5.60773,1.86925 3.56478,-3.70997 7.62691,-6.41805 1.36296,-0.90864 4.76718,0.81225 5.61711,-0.88761 0.57785,-1.15569 3.98897,-3.82615 5.4438,-4.31109 0.61803,-0.20601 0.15011,8.08122 4.04061,8.08122 2.82386,0 8.6533,1.22919 11.11168,0 1.75733,-0.87866 2.52538,-6.10299 2.52538,-5.05076 0,4.12478 2.07011,3.6198 7.42821,2.28028 5.409,-1.35225 6.00636,-4.2005 6.71393,-2.78536 1.03425,2.0685 0.59229,4.92904 2.0203,7.07107 0.31689,0.47533 5.29143,1.0339 5.55584,0.50507 1.80208,-3.60415 0.79394,-6.11497 7.07107,-4.54568 2.50229,0.62557 3.56699,2.20963 5.55584,3.53553 2.40537,1.60359 6.53527,1.01015 9.59645,1.01015"
       inkscape:connector-curvature="0"
       sodipodi:nodetypes="ccssssssssssssssssssssc" />
  </g>
</svg>
