<?xml version="1.0" encoding="UTF-8" standalone="no"?>
<svg
   xmlns:dc="http://purl.org/dc/elements/1.1/"
   xmlns:cc="http://creativecommons.org/ns#"
   xmlns:rdf="http://www.w3.org/1999/02/22-rdf-syntax-ns#"
   xmlns:svg="http://www.w3.org/2000/svg"
   xmlns="http://www.w3.org/2000/svg"
   xmlns:sodipodi="http://sodipodi.sourceforge.net/DTD/sodipodi-0.dtd"
   xmlns:inkscape="http://www.inkscape.org/namespaces/inkscape"
   version="1.1"
   viewBox="0 0 32 32"
   xml:space="preserve"
   id="svg2"
   inkscape:version="0.48.4 r9939"
   width="100%"
   height="100%"
   sodipodi:docname="female-portrait.svg"
   style="enable-background:new 0 0 32 32;"><metadata
     id="metadata12"><rdf:RDF><cc:Work
         rdf:about=""><dc:format>image/svg+xml</dc:format><dc:type
           rdf:resource="http://purl.org/dc/dcmitype/StillImage" /><dc:title /></cc:Work></rdf:RDF></metadata><defs
     id="defs10" /><sodipodi:namedview
     pagecolor="#ffffff"
     bordercolor="#666666"
     borderopacity="1"
     objecttolerance="10"
     gridtolerance="10"
     guidetolerance="10"
     inkscape:pageopacity="0"
     inkscape:pageshadow="2"
     inkscape:window-width="1920"
     inkscape:window-height="1013"
     id="namedview8"
     showgrid="false"
     inkscape:zoom="7.375"
     inkscape:cx="12.039"
     inkscape:cy="13.303"
     inkscape:window-x="1911"
     inkscape:window-y="-9"
     inkscape:window-maximized="1"
     inkscape:current-layer="svg2" /><g
     id="i20"
     style="fill:#de87aa"
     transform="matrix(1.1625493,0,0,1.1976664,-2.6048578,-3.0952175)"><path
       d="M 24.94,23.372 C 24,22.956 22.376,22.364 20.767,21.804 V 19.496 C 25.125,18.278 24.453,16.284 23.903,12.14 23.251,7.227 22.413,3.654 18.895,3.8 17.975,3.026 17.162,2.52 15.038,2.591 12.913,2.662 9.424,4.923 8.494,8.501 7.573,12.044 3.9,21.223 11.24,20.739 v 1.066 c -1.608,0.56 -3.233,1.152 -4.172,1.568 -2.342,1.036 -3.107,2.476 -3.107,5.93 1.195,0 12.043,0 12.043,0 0,0 10.848,0 12.042,0 0,-3.455 -0.765,-4.894 -3.106,-5.931 z M 12.585,20.563 c 0.021,-0.004 0.043,-0.009 0.064,-0.013 0.22,0.197 0.452,0.375 0.693,0.536 0.774,0.518 1.649,0.842 2.619,0.842 0.982,0 1.867,-0.332 2.648,-0.862 0.286,-0.194 0.558,-0.415 0.815,-0.658 v 2.459 c -0.497,1.036 -1.99,3.509 -3.452,3.509 -1.458,0 -2.909,-2.472 -3.387,-3.504 V 20.563 z M 9.44,12.839 C 9.462,12.801 9.483,12.775 9.505,12.747 9.597,12.661 9.694,12.588 9.8,12.539 L 10.349,12.414 10.348,12.4 c 1.287,-0.255 2.896,-0.557 4.516,-2.889 0.425,0.566 -0.212,1.983 -0.212,1.983 0,0 2.62,-0.567 3.966,-3.4 0.716,2.333 2.283,4.007 2.96,4.273 l -0.004,0.046 0.569,0.13 c 0.004,0.001 0.01,0.004 0.015,0.005 0.07,0.036 0.136,0.078 0.198,0.125 0.041,0.042 0.083,0.092 0.127,0.167 0.493,0.839 -0.319,2.139 -0.793,2.462 -0.212,0.144 -0.378,0.19 -0.543,0.227 l -0.363,0.081 -0.124,0.35 c -0.261,0.738 -0.719,1.694 -1.348,2.546 -0.173,0.235 -0.36,0.46 -0.559,0.672 -0.232,0.247 -0.478,0.476 -0.743,0.672 -0.373,0.276 -0.778,0.49 -1.212,0.614 -0.268,0.076 -0.546,0.12 -0.836,0.12 -0.271,0 -0.532,-0.041 -0.784,-0.109 C 14.724,20.354 14.301,20.137 13.914,19.85 13.649,19.654 13.403,19.425 13.171,19.178 12.972,18.966 12.786,18.741 12.612,18.506 11.984,17.654 11.525,16.697 11.264,15.96 L 11.14,15.609 10.777,15.528 C 10.612,15.491 10.446,15.446 10.234,15.301 9.759,14.978 8.947,13.679 9.44,12.839 z"
       id="path5"
       style="fill:#de87aa"
       inkscape:connector-curvature="0" /></g><g
     id="Layer_1" /></svg>